<?xml version="1.0" encoding="UTF-8" standalone="no"?>
<svg
   xmlns:dc="http://purl.org/dc/elements/1.1/"
   xmlns:cc="http://creativecommons.org/ns#"
   xmlns:rdf="http://www.w3.org/1999/02/22-rdf-syntax-ns#"
   xmlns:svg="http://www.w3.org/2000/svg"
   xmlns="http://www.w3.org/2000/svg"
   id="svg98"
   version="1.1"
   height="20.078"
   width="192.22">
  <metadata
     id="metadata102">
    <rdf:RDF>
      <cc:Work
         rdf:about="">
        <dc:format>image/svg+xml</dc:format>
        <dc:type
           rdf:resource="http://purl.org/dc/dcmitype/StillImage" />
        <dc:title></dc:title>
      </cc:Work>
    </rdf:RDF>
  </metadata>
  <style
     id="style2" />
  <defs
     id="defs15">
    <linearGradient
       gradientUnits="userSpaceOnUse"
       gradientTransform="translate(0,20)"
       y2="-16.76"
       y1="-5.6998"
       x2="170.83"
       x1="170.83"
       id="linearGradient891">
      <stop
         id="stop4"
         offset="0"
         stop-opacity=".4549"
         stop-color="#480900" />
      <stop
         id="stop6"
         offset="1"
         stop-opacity="0"
         stop-color="#d2d2d2" />
    </linearGradient>
    <filter
       color-interpolation-filters="sRGB"
       height="1.0362"
       width="1.0044"
       y="-.018085"
       x="-.0021966"
       id="filter923">
      <feGaussianBlur
         id="feGaussianBlur9"
         stdDeviation="0.082526871" />
    </filter>
    <filter
       color-interpolation-filters="sRGB"
       height="1.0372"
       width="1.005"
       y="-.018605"
       x="-.0025127"
       id="filter927">
      <feGaussianBlur
         id="feGaussianBlur12"
         stdDeviation="0.082526871" />
    </filter>
  </defs>
  <clipPath
     id="a">
    <rect
       id="rect17"
       fill="#fff"
       rx="3"
       height="20"
       width="102" />
  </clipPath>
  <g
     id="g26">
    <path
       id="path20"
       style="paint-order:stroke fill markers"
       fill="#f60"
       d="m188.84 0h-104.56v20h104.56c1.8715 0 3.3782-1.5067 3.3782-3.3782v-13.244c0-1.8715-1.5067-3.3782-3.3782-3.3782z" />
    <path
       id="path22"
       style="paint-order:stroke fill markers"
       fill="#4d4d4d"
       d="m3.3782 0h84.558v20h-84.558c-1.8715 0-3.3782-1.5067-3.3782-3.3782v-13.244c0-1.8715 1.5067-3.3782 3.3782-3.3782z" />
    <path
       id="rect24"
       d="M 3.3782001,0 H 188.7918 c 1.87152,0 3.3782,1.5066772 3.3782,3.3782001 V 16.699799 c 0,1.871523 -1.50668,3.3782 -3.3782,3.3782 H 3.3782001 C 1.5066772,20.077999 0,18.571322 0,16.699799 V 3.3782001 C 0,1.5066772 1.5066772,0 3.3782001,0 Z"
       style="fill:url(#linearGradient891);paint-order:stroke fill markers" />
  </g>
  <g
     id="g96">
    <g
       id="g56"
       aria-label="ansible-galaxy"
       stroke-width=".1"
       filter="url(#filter927)"
       fill-opacity=".66791"
       fill="#010101"
       transform="translate(0 .81938)">
      <path
         id="path28"
         style="font-feature-settings:normal;font-variant-caps:normal;font-variant-ligatures:normal;font-variant-numeric:normal"
         d="m10.162 11.088q-1.1978 0-1.6597 0.27393-0.46191 0.27393-0.46191 0.93457 0 0.52637 0.34375 0.83789 0.34912 0.30615 0.94531 0.30615 0.82178 0 1.3159-0.58008 0.49951-0.58545 0.49951-1.5522v-0.22022zm1.9712-0.4082v3.4321h-0.98828v-0.91309q-0.33838 0.54785-0.84326 0.81104-0.50488 0.25781-1.2354 0.25781-0.92383 0-1.4717-0.51562-0.54248-0.521-0.54248-1.3911 0-1.0151 0.67676-1.5308 0.68213-0.51562 2.0303-0.51562h1.3857v-0.09668q0-0.68213-0.45117-1.0527-0.4458-0.37598-1.2568-0.37598-0.51562 0-1.0044 0.12354-0.48877 0.12354-0.93994 0.37061v-0.91309q0.54248-0.20947 1.0527-0.31152 0.51025-0.10742 0.99365-0.10742 1.3052 0 1.9497 0.67676t0.64453 2.0518z" />
      <path
         id="path30"
         style="font-feature-settings:normal;font-variant-caps:normal;font-variant-ligatures:normal;font-variant-numeric:normal"
         d="m19.169 10.481v3.6309h-0.98828v-3.5986q0-0.854-0.33301-1.2783t-0.99902-0.42432q-0.80029 0-1.2622 0.51025t-0.46191 1.3911v3.3999h-0.99365v-6.0156h0.99365v0.93457q0.35449-0.54248 0.83252-0.81104 0.4834-0.26855 1.1118-0.26855 1.0366 0 1.5684 0.64453 0.53174 0.63916 0.53174 1.8853z" />
      <path
         id="path32"
         style="font-feature-settings:normal;font-variant-caps:normal;font-variant-ligatures:normal;font-variant-numeric:normal"
         d="m24.975 8.2737v0.93457q-0.41894-0.21484-0.87012-0.32227t-0.93457-0.10742q-0.73584 0-1.1064 0.22559-0.36523 0.22559-0.36523 0.67676 0 0.34375 0.26318 0.54248 0.26318 0.19336 1.0581 0.3706l0.33838 0.0752q1.0527 0.22559 1.4932 0.63916 0.4458 0.4082 0.4458 1.144 0 0.83789-0.66602 1.3267-0.66064 0.48877-1.8208 0.48877-0.4834 0-1.0098-0.09668-0.521-0.09131-1.1011-0.2793v-1.0205q0.54785 0.28467 1.0796 0.42969 0.53174 0.13965 1.0527 0.13965 0.69824 0 1.0742-0.23633 0.37598-0.2417 0.37598-0.67676 0-0.40283-0.27393-0.61768-0.26855-0.21484-1.187-0.41357l-0.34375-0.08057q-0.91846-0.19336-1.3267-0.59082-0.4082-0.40283-0.4082-1.1011 0-0.84863 0.60156-1.3105 0.60156-0.46191 1.708-0.46191 0.54785 0 1.0312 0.080566 0.4834 0.080566 0.8916 0.2417z" />
      <path
         id="path34"
         style="font-feature-settings:normal;font-variant-caps:normal;font-variant-ligatures:normal;font-variant-numeric:normal"
         d="m26.871 8.0965h0.98828v6.0156h-0.98828zm0-2.3418h0.98828v1.2515h-0.98828z" />
      <path
         id="path36"
         style="font-feature-settings:normal;font-variant-caps:normal;font-variant-ligatures:normal;font-variant-numeric:normal"
         d="m34.246 11.11q0-1.0903-0.45117-1.708-0.4458-0.62305-1.23-0.62305-0.78418 0-1.2354 0.62305-0.4458 0.61768-0.4458 1.708t0.4458 1.7134q0.45117 0.61768 1.2354 0.61768 0.78418 0 1.23-0.61768 0.45117-0.62305 0.45117-1.7134zm-3.3623-2.1001q0.31152-0.53711 0.78418-0.79492 0.47803-0.26318 1.1387-0.26318 1.0957 0 1.7778 0.87012 0.6875 0.87012 0.6875 2.2881 0 1.418-0.6875 2.2881-0.68213 0.87012-1.7778 0.87012-0.66064 0-1.1387-0.25781-0.47266-0.26318-0.78418-0.80029v0.90234h-0.99365v-8.3574h0.99365z" />
      <path
         id="path38"
         style="font-feature-settings:normal;font-variant-caps:normal;font-variant-ligatures:normal;font-variant-numeric:normal"
         d="m36.91 5.7547h0.98828v8.3574h-0.98828z" />
      <path
         id="path40"
         style="font-feature-settings:normal;font-variant-caps:normal;font-variant-ligatures:normal;font-variant-numeric:normal"
         d="m45.111 10.857v0.4834h-4.5439q0.06445 1.0205 0.6123 1.5576 0.55322 0.53174 1.5361 0.53174 0.56934 0 1.1011-0.13965 0.53711-0.13965 1.0635-0.41894v0.93457q-0.53174 0.22559-1.0903 0.34375-0.55859 0.11816-1.1333 0.11816-1.4395 0-2.2827-0.83789-0.83789-0.83789-0.83789-2.2666 0-1.4771 0.79492-2.3418 0.80029-0.87012 2.1538-0.87012 1.2139 0 1.9175 0.78418 0.70898 0.77881 0.70898 2.1216zm-0.98828-0.29004q-0.010742-0.81104-0.45654-1.2944-0.44043-0.4834-1.1709-0.4834-0.82715 0-1.3267 0.46729-0.49414 0.46729-0.56934 1.3159z" />
      <path
         id="path42"
         style="font-feature-settings:normal;font-variant-caps:normal;font-variant-ligatures:normal;font-variant-numeric:normal"
         d="m46.234 10.659h2.895v0.88086h-2.895z" />
      <path
         id="path44"
         style="font-feature-settings:normal;font-variant-caps:normal;font-variant-ligatures:normal;font-variant-numeric:normal"
         d="m54.661 11.034q0-1.0742-0.4458-1.665-0.44043-0.59082-1.2407-0.59082-0.79492 0-1.2407 0.59082-0.44043 0.59082-0.44043 1.665 0 1.0688 0.44043 1.6597 0.4458 0.59082 1.2407 0.59082 0.80029 0 1.2407-0.59082 0.4458-0.59082 0.4458-1.6597zm0.98828 2.3311q0 1.5361-0.68213 2.2827-0.68213 0.75195-2.0894 0.75195-0.521 0-0.98291-0.08057-0.46191-0.0752-0.89697-0.23633v-0.96143q0.43506 0.23633 0.85938 0.34912 0.42432 0.11279 0.86475 0.11279 0.97217 0 1.4556-0.51025 0.4834-0.50488 0.4834-1.5308v-0.48877q-0.30615 0.53174-0.78418 0.79492-0.47803 0.26318-1.144 0.26318-1.1064 0-1.7832-0.84326-0.67676-0.84326-0.67676-2.2344 0-1.3965 0.67676-2.2397 0.67676-0.84326 1.7832-0.84326 0.66602 0 1.144 0.26318 0.47803 0.26318 0.78418 0.79492v-0.91309h0.98828z" />
      <path
         id="path46"
         style="font-feature-settings:normal;font-variant-caps:normal;font-variant-ligatures:normal;font-variant-numeric:normal"
         d="m60.419 11.088q-1.1978 0-1.6597 0.27393t-0.46191 0.93457q0 0.52637 0.34375 0.83789 0.34912 0.30615 0.94531 0.30615 0.82178 0 1.3159-0.58008 0.49951-0.58545 0.49951-1.5522v-0.22022zm1.9712-0.4082v3.4321h-0.98828v-0.91309q-0.33838 0.54785-0.84326 0.81104-0.50488 0.25781-1.2354 0.25781-0.92383 0-1.4717-0.51562-0.54248-0.521-0.54248-1.3911 0-1.0151 0.67676-1.5308 0.68213-0.51562 2.0303-0.51562h1.3857v-0.09668q0-0.68213-0.45117-1.0527-0.4458-0.37598-1.2568-0.37598-0.51562 0-1.0044 0.12354-0.48877 0.12354-0.93994 0.37061v-0.91308q0.54248-0.20947 1.0527-0.31152 0.51025-0.10742 0.99365-0.10742 1.3052 0 1.9497 0.67676t0.64453 2.0518z" />
      <path
         id="path48"
         style="font-feature-settings:normal;font-variant-caps:normal;font-variant-ligatures:normal;font-variant-numeric:normal"
         d="m64.426 5.7547h0.98828v8.3574h-0.98828z" />
      <path
         id="path50"
         style="font-feature-settings:normal;font-variant-caps:normal;font-variant-ligatures:normal;font-variant-numeric:normal"
         d="m70.216 11.088q-1.1978 0-1.6597 0.27393t-0.46191 0.93457q0 0.52637 0.34375 0.83789 0.34912 0.30615 0.94531 0.30615 0.82178 0 1.3159-0.58008 0.49951-0.58545 0.49951-1.5522v-0.22022zm1.9712-0.4082v3.4321h-0.98828v-0.91309q-0.33838 0.54785-0.84326 0.81104-0.50488 0.25781-1.2354 0.25781-0.92383 0-1.4717-0.51562-0.54248-0.521-0.54248-1.3911 0-1.0151 0.67676-1.5308 0.68213-0.51562 2.0303-0.51562h1.3857v-0.09668q0-0.68213-0.45117-1.0527-0.4458-0.37598-1.2568-0.37598-0.51562 0-1.0044 0.12354-0.48877 0.12354-0.93994 0.37061v-0.91308q0.54248-0.20947 1.0527-0.31152 0.51025-0.10742 0.99365-0.10742 1.3052 0 1.9497 0.67676t0.64453 2.0518z" />
      <path
         id="path52"
         style="font-feature-settings:normal;font-variant-caps:normal;font-variant-ligatures:normal;font-variant-numeric:normal"
         d="m79.223 8.0965-2.1753 2.9272 2.2881 3.0884h-1.1655l-1.751-2.3633-1.751 2.3633h-1.1655l2.3364-3.1475-2.1377-2.8682h1.1655l1.5952 2.1431 1.5952-2.1431z" />
      <path
         id="path54"
         style="font-feature-settings:normal;font-variant-caps:normal;font-variant-ligatures:normal;font-variant-numeric:normal"
         d="m83.235 14.671q-0.41894 1.0742-0.81641 1.4019t-1.0635 0.32764h-0.78955v-0.82715h0.58008q0.4082 0 0.63379-0.19336 0.22559-0.19336 0.49951-0.91309l0.17725-0.45117-2.4331-5.9189h1.0474l1.8799 4.7051 1.8799-4.7051h1.0474z" />
    </g>
    <g
       id="g86"
       aria-label="ansible-galaxy"
       fill="#fff">
      <path
         id="path58"
         style="font-feature-settings:normal;font-variant-caps:normal;font-variant-ligatures:normal;font-variant-numeric:normal"
         d="m10.162 11.088q-1.1978 0-1.6597 0.27393-0.46191 0.27393-0.46191 0.93457 0 0.52637 0.34375 0.83789 0.34912 0.30615 0.94531 0.30615 0.82178 0 1.3159-0.58008 0.49951-0.58545 0.49951-1.5522v-0.22022zm1.9712-0.4082v3.4321h-0.98828v-0.91309q-0.33838 0.54785-0.84326 0.81104-0.50488 0.25781-1.2354 0.25781-0.92383 0-1.4717-0.51562-0.54248-0.521-0.54248-1.3911 0-1.0151 0.67676-1.5308 0.68213-0.51562 2.0303-0.51562h1.3857v-0.09668q0-0.68213-0.45117-1.0527-0.4458-0.37598-1.2568-0.37598-0.51562 0-1.0044 0.12354-0.48877 0.12354-0.93994 0.37061v-0.91309q0.54248-0.20947 1.0527-0.31152 0.51025-0.10742 0.99365-0.10742 1.3052 0 1.9497 0.67676t0.64453 2.0518z" />
      <path
         id="path60"
         style="font-feature-settings:normal;font-variant-caps:normal;font-variant-ligatures:normal;font-variant-numeric:normal"
         d="m19.169 10.481v3.6309h-0.98828v-3.5986q0-0.854-0.33301-1.2783t-0.99902-0.42432q-0.80029 0-1.2622 0.51025t-0.46191 1.3911v3.3999h-0.99365v-6.0156h0.99365v0.93457q0.35449-0.54248 0.83252-0.81104 0.4834-0.26855 1.1118-0.26855 1.0366 0 1.5684 0.64453 0.53174 0.63916 0.53174 1.8853z" />
      <path
         id="path62"
         style="font-feature-settings:normal;font-variant-caps:normal;font-variant-ligatures:normal;font-variant-numeric:normal"
         d="m24.975 8.2737v0.93457q-0.41894-0.21484-0.87012-0.32227t-0.93457-0.10742q-0.73584 0-1.1064 0.22559-0.36523 0.22559-0.36523 0.67676 0 0.34375 0.26318 0.54248 0.26318 0.19336 1.0581 0.3706l0.33838 0.0752q1.0527 0.22559 1.4932 0.63916 0.4458 0.4082 0.4458 1.144 0 0.83789-0.66602 1.3267-0.66064 0.48877-1.8208 0.48877-0.4834 0-1.0098-0.09668-0.521-0.09131-1.1011-0.2793v-1.0205q0.54785 0.28467 1.0796 0.42969 0.53174 0.13965 1.0527 0.13965 0.69824 0 1.0742-0.23633 0.37598-0.2417 0.37598-0.67676 0-0.40283-0.27393-0.61768-0.26855-0.21484-1.187-0.41357l-0.34375-0.08057q-0.91846-0.19336-1.3267-0.59082-0.4082-0.40283-0.4082-1.1011 0-0.84863 0.60156-1.3105 0.60156-0.46191 1.708-0.46191 0.54785 0 1.0312 0.080566 0.4834 0.080566 0.8916 0.2417z" />
      <path
         id="path64"
         style="font-feature-settings:normal;font-variant-caps:normal;font-variant-ligatures:normal;font-variant-numeric:normal"
         d="m26.871 8.0965h0.98828v6.0156h-0.98828zm0-2.3418h0.98828v1.2515h-0.98828z" />
      <path
         id="path66"
         style="font-feature-settings:normal;font-variant-caps:normal;font-variant-ligatures:normal;font-variant-numeric:normal"
         d="m34.246 11.11q0-1.0903-0.45117-1.708-0.4458-0.62305-1.23-0.62305-0.78418 0-1.2354 0.62305-0.4458 0.61768-0.4458 1.708t0.4458 1.7134q0.45117 0.61768 1.2354 0.61768 0.78418 0 1.23-0.61768 0.45117-0.62305 0.45117-1.7134zm-3.3623-2.1001q0.31152-0.53711 0.78418-0.79492 0.47803-0.26318 1.1387-0.26318 1.0957 0 1.7778 0.87012 0.6875 0.87012 0.6875 2.2881 0 1.418-0.6875 2.2881-0.68213 0.87012-1.7778 0.87012-0.66064 0-1.1387-0.25781-0.47266-0.26318-0.78418-0.80029v0.90234h-0.99365v-8.3574h0.99365z" />
      <path
         id="path68"
         style="font-feature-settings:normal;font-variant-caps:normal;font-variant-ligatures:normal;font-variant-numeric:normal"
         d="m36.91 5.7547h0.98828v8.3574h-0.98828z" />
      <path
         id="path70"
         style="font-feature-settings:normal;font-variant-caps:normal;font-variant-ligatures:normal;font-variant-numeric:normal"
         d="m45.111 10.857v0.4834h-4.5439q0.06445 1.0205 0.6123 1.5576 0.55322 0.53174 1.5361 0.53174 0.56934 0 1.1011-0.13965 0.53711-0.13965 1.0635-0.41894v0.93457q-0.53174 0.22559-1.0903 0.34375-0.55859 0.11816-1.1333 0.11816-1.4395 0-2.2827-0.83789-0.83789-0.83789-0.83789-2.2666 0-1.4771 0.79492-2.3418 0.80029-0.87012 2.1538-0.87012 1.2139 0 1.9175 0.78418 0.70898 0.77881 0.70898 2.1216zm-0.98828-0.29004q-0.010742-0.81104-0.45654-1.2944-0.44043-0.4834-1.1709-0.4834-0.82715 0-1.3267 0.46729-0.49414 0.46729-0.56934 1.3159z" />
      <path
         id="path72"
         style="font-feature-settings:normal;font-variant-caps:normal;font-variant-ligatures:normal;font-variant-numeric:normal"
         d="m46.234 10.659h2.895v0.88086h-2.895z" />
      <path
         id="path74"
         style="font-feature-settings:normal;font-variant-caps:normal;font-variant-ligatures:normal;font-variant-numeric:normal"
         d="m54.661 11.034q0-1.0742-0.4458-1.665-0.44043-0.59082-1.2407-0.59082-0.79492 0-1.2407 0.59082-0.44043 0.59082-0.44043 1.665 0 1.0688 0.44043 1.6597 0.4458 0.59082 1.2407 0.59082 0.80029 0 1.2407-0.59082 0.4458-0.59082 0.4458-1.6597zm0.98828 2.3311q0 1.5361-0.68213 2.2827-0.68213 0.75195-2.0894 0.75195-0.521 0-0.98291-0.08057-0.46191-0.0752-0.89697-0.23633v-0.96143q0.43506 0.23633 0.85938 0.34912 0.42432 0.11279 0.86475 0.11279 0.97217 0 1.4556-0.51025 0.4834-0.50488 0.4834-1.5308v-0.48877q-0.30615 0.53174-0.78418 0.79492-0.47803 0.26318-1.144 0.26318-1.1064 0-1.7832-0.84326-0.67676-0.84326-0.67676-2.2344 0-1.3965 0.67676-2.2397 0.67676-0.84326 1.7832-0.84326 0.66602 0 1.144 0.26318 0.47803 0.26318 0.78418 0.79492v-0.91309h0.98828z" />
      <path
         id="path76"
         style="font-feature-settings:normal;font-variant-caps:normal;font-variant-ligatures:normal;font-variant-numeric:normal"
         d="m60.419 11.088q-1.1978 0-1.6597 0.27393t-0.46191 0.93457q0 0.52637 0.34375 0.83789 0.34912 0.30615 0.94531 0.30615 0.82178 0 1.3159-0.58008 0.49951-0.58545 0.49951-1.5522v-0.22022zm1.9712-0.4082v3.4321h-0.98828v-0.91309q-0.33838 0.54785-0.84326 0.81104-0.50488 0.25781-1.2354 0.25781-0.92383 0-1.4717-0.51562-0.54248-0.521-0.54248-1.3911 0-1.0151 0.67676-1.5308 0.68213-0.51562 2.0303-0.51562h1.3857v-0.09668q0-0.68213-0.45117-1.0527-0.4458-0.37598-1.2568-0.37598-0.51562 0-1.0044 0.12354-0.48877 0.12354-0.93994 0.37061v-0.91308q0.54248-0.20947 1.0527-0.31152 0.51025-0.10742 0.99365-0.10742 1.3052 0 1.9497 0.67676t0.64453 2.0518z" />
      <path
         id="path78"
         style="font-feature-settings:normal;font-variant-caps:normal;font-variant-ligatures:normal;font-variant-numeric:normal"
         d="m64.426 5.7547h0.98828v8.3574h-0.98828z" />
      <path
         id="path80"
         style="font-feature-settings:normal;font-variant-caps:normal;font-variant-ligatures:normal;font-variant-numeric:normal"
         d="m70.216 11.088q-1.1978 0-1.6597 0.27393t-0.46191 0.93457q0 0.52637 0.34375 0.83789 0.34912 0.30615 0.94531 0.30615 0.82178 0 1.3159-0.58008 0.49951-0.58545 0.49951-1.5522v-0.22022zm1.9712-0.4082v3.4321h-0.98828v-0.91309q-0.33838 0.54785-0.84326 0.81104-0.50488 0.25781-1.2354 0.25781-0.92383 0-1.4717-0.51562-0.54248-0.521-0.54248-1.3911 0-1.0151 0.67676-1.5308 0.68213-0.51562 2.0303-0.51562h1.3857v-0.09668q0-0.68213-0.45117-1.0527-0.4458-0.37598-1.2568-0.37598-0.51562 0-1.0044 0.12354-0.48877 0.12354-0.93994 0.37061v-0.91308q0.54248-0.20947 1.0527-0.31152 0.51025-0.10742 0.99365-0.10742 1.3052 0 1.9497 0.67676t0.64453 2.0518z" />
      <path
         id="path82"
         style="font-feature-settings:normal;font-variant-caps:normal;font-variant-ligatures:normal;font-variant-numeric:normal"
         d="m79.223 8.0965-2.1753 2.9272 2.2881 3.0884h-1.1655l-1.751-2.3633-1.751 2.3633h-1.1655l2.3364-3.1475-2.1377-2.8682h1.1655l1.5952 2.1431 1.5952-2.1431z" />
      <path
         id="path84"
         style="font-feature-settings:normal;font-variant-caps:normal;font-variant-ligatures:normal;font-variant-numeric:normal"
         d="m83.235 14.671q-0.41894 1.0742-0.81641 1.4019t-1.0635 0.32764h-0.78955v-0.82715h0.58008q0.4082 0 0.63379-0.19336 0.22559-0.19336 0.49951-0.91309l0.17725-0.45117-2.4331-5.9189h1.0474l1.8799 4.7051 1.8799-4.7051h1.0474z" />
    </g>
    <g
       id="text90"
       style="font-size:11px;line-height:normal;font-family:'DejaVu Sans', Verdana, Geneva, sans-serif;font-variant-ligatures:normal;font-variant-position:normal;font-variant-caps:normal;font-variant-numeric:normal;font-variant-alternates:normal;font-feature-settings:normal;text-indent:0;text-decoration:none;text-decoration-line:none;text-decoration-style:solid;text-decoration-color:#000000;text-transform:none;text-orientation:mixed;dominant-baseline:auto;text-anchor:middle;white-space:normal;shape-padding:0;fill:#010101;fill-opacity:0.66790999;stroke-width:0.1;filter:url(#filter923)"
       aria-label="do1jlr.role_iperf">
      <path
         id="path915"
         style="text-anchor:start;fill:#010101;fill-opacity:0.66790999"
         d="M 97.454193,9.7370062 V 6.4821234 h 0.988281 v 8.3574216 h -0.988281 v -0.902344 q -0.311523,0.53711 -0.789551,0.800293 -0.472656,0.257813 -1.138672,0.257813 -1.090332,0 -1.777832,-0.870117 -0.682128,-0.870117 -0.682128,-2.288086 0,-1.417969 0.682128,-2.2880861 0.6875,-0.8701172 1.777832,-0.8701172 0.666016,0 1.138672,0.2631836 0.478028,0.2578125 0.789551,0.7949219 z m -3.367676,2.1000978 q 0,1.090332 0.445801,1.713379 0.451172,0.617676 1.235352,0.617676 0.784179,0 1.235351,-0.617676 0.451172,-0.623047 0.451172,-1.713379 0,-1.090332 -0.451172,-1.708008 -0.451172,-0.6230468 -1.235351,-0.6230468 -0.78418,0 -1.235352,0.6230468 -0.445801,0.617676 -0.445801,1.708008 z" />
      <path
         id="path917"
         style="text-anchor:start;fill:#010101;fill-opacity:0.66790999"
         d="m 102.80917,9.5167913 q -0.79492,0 -1.25683,0.6230467 -0.46192,0.617676 -0.46192,1.697266 0,1.07959 0.45655,1.702637 0.46191,0.617675 1.2622,0.617675 0.78955,0 1.25147,-0.623047 0.46191,-0.623046 0.46191,-1.697265 0,-1.068848 -0.46191,-1.691895 -0.46192,-0.6284177 -1.25147,-0.6284177 z m 0,-0.8378906 q 1.28907,0 2.02491,0.8378906 0.73584,0.8378907 0.73584,2.3203127 0,1.477051 -0.73584,2.320312 -0.73584,0.837891 -2.02491,0.837891 -1.29443,0 -2.03027,-0.837891 -0.73047,-0.843261 -0.73047,-2.320312 0,-1.482422 0.73047,-2.3203127 0.73584,-0.8378906 2.03027,-0.8378906 z" />
      <path
         id="path919"
         style="text-anchor:start;fill:#010101;fill-opacity:0.66790999"
         d="m 107.53574,13.926459 h 1.77246 V 7.8087835 l -1.92823,0.3867188 V 7.207221 l 1.91748,-0.3867187 h 1.08497 v 7.1059567 h 1.77246 v 0.913086 h -4.61914 z" />
      <path
         id="path921"
         style="text-anchor:start;fill:#010101;fill-opacity:0.66790999"
         d="m 114.20663,8.8239202 h 0.98829 v 6.1230468 q 0,1.149414 -0.44043,1.665039 -0.43506,0.515625 -1.40723,0.515625 h -0.37598 v -0.83789 h 0.26319 q 0.56396,0 0.76806,-0.263184 0.2041,-0.257813 0.2041,-1.07959 z m 0,-2.3417968 h 0.98829 v 1.2514648 h -0.98829 z" />
      <path
         id="path923"
         style="text-anchor:start;fill:#010101;fill-opacity:0.66790999"
         d="m 117.26279,6.4821234 h 0.98828 v 8.3574216 h -0.98828 z" />
      <path
         id="path925"
         style="text-anchor:start;fill:#010101;fill-opacity:0.66790999"
         d="m 123.80478,9.7477484 q -0.1665,-0.09668 -0.36524,-0.1396485 -0.19335,-0.04834 -0.42968,-0.04834 -0.83789,0 -1.28907,0.5478519 -0.4458,0.54248 -0.4458,1.562988 v 3.168945 h -0.99365 V 8.8239202 h 0.99365 v 0.9345704 q 0.31153,-0.5478516 0.81104,-0.8110352 0.49951,-0.2685547 1.21387,-0.2685547 0.10205,0 0.22558,0.016113 0.12354,0.010742 0.27393,0.037598 z" />
      <path
         id="path927"
         style="text-anchor:start;fill:#010101;fill-opacity:0.66790999"
         d="m 123.97128,13.475287 h 1.1333 v 1.364258 h -1.1333 z" />
      <path
         id="path929"
         style="text-anchor:start;fill:#010101;fill-opacity:0.66790999"
         d="m 130.81406,9.7477484 q -0.16651,-0.09668 -0.36524,-0.1396485 -0.19336,-0.04834 -0.42969,-0.04834 -0.83789,0 -1.28906,0.5478519 -0.4458,0.54248 -0.4458,1.562988 v 3.168945 h -0.99365 V 8.8239202 h 0.99365 v 0.9345704 q 0.31152,-0.5478516 0.81104,-0.8110352 0.49951,-0.2685547 1.21386,-0.2685547 0.10205,0 0.22559,0.016113 0.12353,0.010742 0.27393,0.037598 z" />
      <path
         id="path931"
         style="text-anchor:start;fill:#010101;fill-opacity:0.66790999"
         d="m 133.94003,9.5167913 q -0.79492,0 -1.25683,0.6230467 -0.46192,0.617676 -0.46192,1.697266 0,1.07959 0.45655,1.702637 0.46191,0.617675 1.2622,0.617675 0.78955,0 1.25147,-0.623047 0.46191,-0.623046 0.46191,-1.697265 0,-1.068848 -0.46191,-1.691895 -0.46192,-0.6284177 -1.25147,-0.6284177 z m 0,-0.8378906 q 1.28907,0 2.02491,0.8378906 0.73584,0.8378907 0.73584,2.3203127 0,1.477051 -0.73584,2.320312 -0.73584,0.837891 -2.02491,0.837891 -1.29443,0 -2.03027,-0.837891 -0.73047,-0.843261 -0.73047,-2.320312 0,-1.482422 0.73047,-2.3203127 0.73584,-0.8378906 2.03027,-0.8378906 z" />
      <path
         id="path933"
         style="text-anchor:start;fill:#010101;fill-opacity:0.66790999"
         d="m 138.33896,6.4821234 h 0.98828 v 8.3574216 h -0.98828 z" />
      <path
         id="path935"
         style="text-anchor:start;fill:#010101;fill-opacity:0.66790999"
         d="m 146.54062,11.584662 v 0.483399 h -4.54395 q 0.0645,1.020508 0.61231,1.557617 0.55322,0.531738 1.53613,0.531738 0.56934,0 1.10108,-0.139648 0.5371,-0.139649 1.06347,-0.418945 v 0.93457 q -0.53174,0.225586 -1.09033,0.34375 -0.55859,0.118164 -1.1333,0.118164 -1.43945,0 -2.28272,-0.837891 -0.83789,-0.83789 -0.83789,-2.266601 0,-1.477051 0.79493,-2.3417971 0.80029,-0.8701172 2.1538,-0.8701172 1.21387,0 1.91748,0.7841797 0.70899,0.7788086 0.70899,2.1215816 z m -0.98828,-0.290039 q -0.0107,-0.811035 -0.45655,-1.294433 -0.44043,-0.4833987 -1.17089,-0.4833987 -0.82715,0 -1.32666,0.4672852 -0.49414,0.4672855 -0.56934,1.3159175 z" />
      <path
         id="path937"
         style="text-anchor:start;fill:#010101;fill-opacity:0.66790999"
         d="m 152.73349,16.665717 v 0.768067 h -5.71484 v -0.768067 z" />
      <path
         id="path939"
         style="text-anchor:start;fill:#010101;fill-opacity:0.66790999"
         d="m 153.66269,8.8239202 h 0.98828 v 6.0156248 h -0.98828 z m 0,-2.3417968 h 0.98828 v 1.2514648 h -0.98828 z" />
      <path
         id="path941"
         style="text-anchor:start;fill:#010101;fill-opacity:0.66790999"
         d="m 157.6749,13.937201 v 3.19043 h -0.99366 V 8.8239202 h 0.99366 v 0.913086 q 0.31152,-0.5371094 0.78418,-0.7949219 0.47802,-0.2631836 1.13867,-0.2631836 1.0957,0 1.77783,0.8701172 0.6875,0.8701171 0.6875,2.2880861 0,1.417969 -0.6875,2.288086 -0.68213,0.870117 -1.77783,0.870117 -0.66065,0 -1.13867,-0.257813 -0.47266,-0.263183 -0.78418,-0.800293 z m 3.3623,-2.100097 q 0,-1.090332 -0.45117,-1.708008 -0.4458,-0.6230468 -1.22998,-0.6230468 -0.78418,0 -1.23535,0.6230468 -0.4458,0.617676 -0.4458,1.708008 0,1.090332 0.4458,1.713379 0.45117,0.617676 1.23535,0.617676 0.78418,0 1.22998,-0.617676 0.45117,-0.623047 0.45117,-1.713379 z" />
      <path
         id="path943"
         style="text-anchor:start;fill:#010101;fill-opacity:0.66790999"
         d="m 168.84677,11.584662 v 0.483399 h -4.54394 q 0.0644,1.020508 0.6123,1.557617 0.55322,0.531738 1.53613,0.531738 0.56934,0 1.10108,-0.139648 0.53711,-0.139649 1.06347,-0.418945 v 0.93457 q -0.53173,0.225586 -1.09033,0.34375 -0.55859,0.118164 -1.1333,0.118164 -1.43945,0 -2.28271,-0.837891 -0.83789,-0.83789 -0.83789,-2.266601 0,-1.477051 0.79492,-2.3417971 0.80029,-0.8701172 2.15381,-0.8701172 1.21386,0 1.91748,0.7841797 0.70898,0.7788086 0.70898,2.1215816 z m -0.98828,-0.290039 q -0.0107,-0.811035 -0.45654,-1.294433 -0.44043,-0.4833987 -1.1709,-0.4833987 -0.82715,0 -1.32666,0.4672852 -0.49414,0.4672855 -0.56934,1.3159175 z" />
      <path
         id="path945"
         style="text-anchor:start;fill:#010101;fill-opacity:0.66790999"
         d="m 173.95468,9.7477484 q -0.1665,-0.09668 -0.36523,-0.1396485 -0.19336,-0.04834 -0.42969,-0.04834 -0.83789,0 -1.28906,0.5478519 -0.4458,0.54248 -0.4458,1.562988 v 3.168945 h -0.99366 V 8.8239202 h 0.99366 v 0.9345704 q 0.31152,-0.5478516 0.81103,-0.8110352 0.49951,-0.2685547 1.21387,-0.2685547 0.10205,0 0.22558,0.016113 0.12354,0.010742 0.27393,0.037598 z" />
      <path
         id="path947"
         style="text-anchor:start;fill:#010101;fill-opacity:0.66790999"
         d="m 178.03671,6.4821234 v 0.8217773 h -0.94531 q -0.53174,0 -0.74121,0.2148438 -0.2041,0.2148437 -0.2041,0.7734375 v 0.5317382 h 1.62744 v 0.7680665 h -1.62744 v 5.2475583 h -0.99365 V 9.5919867 h -0.94532 V 8.8239202 h 0.94532 V 8.4049749 q 0,-1.0043945 0.46728,-1.4609375 0.46729,-0.461914 1.48242,-0.461914 z" />
    </g>
    <g
       id="text94"
       style="font-size:11px;line-height:1.25;font-family:'DejaVu Sans', Verdana, Geneva, sans-serif;font-variant-ligatures:normal;font-variant-caps:normal;font-variant-numeric:normal;font-feature-settings:normal;letter-spacing:0px;word-spacing:0px;fill:#ffffff"
       aria-label="do1jlr.role_iperf">
      <path
         id="path950"
         style=""
         d="M 97.454193,9.1889648 V 5.934082 h 0.988281 v 8.357422 H 97.454193 V 13.38916 q -0.311523,0.53711 -0.789551,0.800293 -0.472656,0.257813 -1.138672,0.257813 -1.090332,0 -1.777832,-0.870118 -0.682128,-0.870117 -0.682128,-2.288085 0,-1.4179692 0.682128,-2.2880864 0.6875,-0.8701172 1.777832,-0.8701172 0.666016,0 1.138672,0.2631836 0.478028,0.2578125 0.789551,0.7949218 z m -3.367676,2.1000982 q 0,1.090332 0.445801,1.713378 0.451172,0.617676 1.235352,0.617676 0.784179,0 1.235351,-0.617676 0.451172,-0.623046 0.451172,-1.713378 0,-1.090333 -0.451172,-1.7080083 -0.451172,-0.6230469 -1.235351,-0.6230469 -0.78418,0 -1.235352,0.6230469 -0.445801,0.6176753 -0.445801,1.7080083 z" />
      <path
         id="path952"
         style=""
         d="m 102.80917,8.96875 q -0.79492,0 -1.25683,0.6230469 -0.46192,0.6176761 -0.46192,1.6972661 0,1.079589 0.45655,1.702636 0.46191,0.617676 1.2622,0.617676 0.78955,0 1.25147,-0.623047 0.46191,-0.623047 0.46191,-1.697265 0,-1.068848 -0.46191,-1.691895 -0.46192,-0.628418 -1.25147,-0.628418 z m 0,-0.8378906 q 1.28907,0 2.02491,0.8378906 0.73584,0.8378906 0.73584,2.320313 0,1.47705 -0.73584,2.320312 -0.73584,0.837891 -2.02491,0.837891 -1.29443,0 -2.03027,-0.837891 -0.73047,-0.843262 -0.73047,-2.320312 0,-1.4824224 0.73047,-2.320313 0.73584,-0.8378906 2.03027,-0.8378906 z" />
      <path
         id="path954"
         style=""
         d="m 107.53574,13.378418 h 1.77246 V 7.2607422 l -1.92823,0.3867187 V 6.6591797 l 1.91748,-0.3867188 h 1.08497 v 7.1059571 h 1.77246 v 0.913086 h -4.61914 z" />
      <path
         id="path956"
         style=""
         d="m 114.20663,8.2758789 h 0.98829 v 6.1230471 q 0,1.149414 -0.44043,1.665039 -0.43506,0.515625 -1.40723,0.515625 h -0.37598 v -0.837891 h 0.26319 q 0.56396,0 0.76806,-0.263183 0.2041,-0.257813 0.2041,-1.07959 z m 0,-2.3417969 h 0.98829 v 1.2514649 h -0.98829 z" />
      <path
         id="path958"
         style=""
         d="m 117.26279,5.934082 h 0.98828 v 8.357422 h -0.98828 z" />
      <path
         id="path960"
         style=""
         d="m 123.80478,9.199707 q -0.1665,-0.09668 -0.36524,-0.1396484 -0.19335,-0.04834 -0.42968,-0.04834 -0.83789,0 -1.28907,0.5478515 -0.4458,0.5424807 -0.4458,1.5629887 v 3.168945 h -0.99365 V 8.2758789 h 0.99365 v 0.9345703 q 0.31153,-0.5478515 0.81104,-0.8110351 0.49951,-0.2685547 1.21387,-0.2685547 0.10205,0 0.22558,0.016113 0.12354,0.010742 0.27393,0.037598 z" />
      <path
         id="path962"
         style=""
         d="m 123.97128,12.927246 h 1.1333 v 1.364258 h -1.1333 z" />
      <path
         id="path964"
         style=""
         d="m 130.81406,9.199707 q -0.16651,-0.09668 -0.36524,-0.1396484 -0.19336,-0.04834 -0.42969,-0.04834 -0.83789,0 -1.28906,0.5478515 -0.4458,0.5424807 -0.4458,1.5629887 v 3.168945 h -0.99365 V 8.2758789 h 0.99365 v 0.9345703 q 0.31152,-0.5478515 0.81104,-0.8110351 0.49951,-0.2685547 1.21386,-0.2685547 0.10205,0 0.22559,0.016113 0.12353,0.010742 0.27393,0.037598 z" />
      <path
         id="path966"
         style=""
         d="m 133.94003,8.96875 q -0.79492,0 -1.25683,0.6230469 -0.46192,0.6176761 -0.46192,1.6972661 0,1.079589 0.45655,1.702636 0.46191,0.617676 1.2622,0.617676 0.78955,0 1.25147,-0.623047 0.46191,-0.623047 0.46191,-1.697265 0,-1.068848 -0.46191,-1.691895 -0.46192,-0.628418 -1.25147,-0.628418 z m 0,-0.8378906 q 1.28907,0 2.02491,0.8378906 0.73584,0.8378906 0.73584,2.320313 0,1.47705 -0.73584,2.320312 -0.73584,0.837891 -2.02491,0.837891 -1.29443,0 -2.03027,-0.837891 -0.73047,-0.843262 -0.73047,-2.320312 0,-1.4824224 0.73047,-2.320313 0.73584,-0.8378906 2.03027,-0.8378906 z" />
      <path
         id="path968"
         style=""
         d="m 138.33896,5.934082 h 0.98828 v 8.357422 h -0.98828 z" />
      <path
         id="path970"
         style=""
         d="m 146.54062,11.036621 v 0.483399 h -4.54395 q 0.0645,1.020507 0.61231,1.557617 0.55322,0.531738 1.53613,0.531738 0.56934,0 1.10108,-0.139648 0.5371,-0.139649 1.06347,-0.418946 v 0.934571 q -0.53174,0.225586 -1.09033,0.34375 -0.55859,0.118164 -1.1333,0.118164 -1.43945,0 -2.28272,-0.837891 -0.83789,-0.837891 -0.83789,-2.266602 0,-1.4770503 0.79493,-2.3417964 0.80029,-0.8701172 2.1538,-0.8701172 1.21387,0 1.91748,0.7841797 0.70899,0.7788086 0.70899,2.1215819 z m -0.98828,-0.290039 Q 145.5416,9.9355469 145.09579,9.4521484 144.65536,8.96875 143.9249,8.96875 q -0.82715,0 -1.32666,0.4672852 -0.49414,0.4672851 -0.56934,1.3159178 z" />
      <path
         id="path972"
         style=""
         d="m 152.73349,16.117676 v 0.768066 h -5.71484 v -0.768066 z" />
      <path
         id="path974"
         style=""
         d="m 153.66269,8.2758789 h 0.98828 v 6.0156251 h -0.98828 z m 0,-2.3417969 h 0.98828 v 1.2514649 h -0.98828 z" />
      <path
         id="path976"
         style=""
         d="m 157.6749,13.38916 v 3.19043 h -0.99366 V 8.2758789 h 0.99366 v 0.9130859 q 0.31152,-0.5371093 0.78418,-0.7949218 0.47802,-0.2631836 1.13867,-0.2631836 1.0957,0 1.77783,0.8701172 0.6875,0.8701172 0.6875,2.2880864 0,1.417968 -0.6875,2.288085 -0.68213,0.870118 -1.77783,0.870118 -0.66065,0 -1.13867,-0.257813 -0.47266,-0.263183 -0.78418,-0.800293 z m 3.3623,-2.100097 q 0,-1.090333 -0.45117,-1.7080083 -0.4458,-0.6230469 -1.22998,-0.6230469 -0.78418,0 -1.23535,0.6230469 -0.4458,0.6176753 -0.4458,1.7080083 0,1.090332 0.4458,1.713378 0.45117,0.617676 1.23535,0.617676 0.78418,0 1.22998,-0.617676 0.45117,-0.623046 0.45117,-1.713378 z" />
      <path
         id="path978"
         style=""
         d="m 168.84677,11.036621 v 0.483399 h -4.54394 q 0.0644,1.020507 0.6123,1.557617 0.55322,0.531738 1.53613,0.531738 0.56934,0 1.10108,-0.139648 0.53711,-0.139649 1.06347,-0.418946 v 0.934571 q -0.53173,0.225586 -1.09033,0.34375 -0.55859,0.118164 -1.1333,0.118164 -1.43945,0 -2.28271,-0.837891 -0.83789,-0.837891 -0.83789,-2.266602 0,-1.4770503 0.79492,-2.3417964 0.80029,-0.8701172 2.15381,-0.8701172 1.21386,0 1.91748,0.7841797 0.70898,0.7788086 0.70898,2.1215819 z m -0.98828,-0.290039 q -0.0107,-0.8110351 -0.45654,-1.2944336 -0.44043,-0.4833984 -1.1709,-0.4833984 -0.82715,0 -1.32666,0.4672852 -0.49414,0.4672851 -0.56934,1.3159178 z" />
      <path
         id="path980"
         style=""
         d="m 173.95468,9.199707 q -0.1665,-0.09668 -0.36523,-0.1396484 -0.19336,-0.04834 -0.42969,-0.04834 -0.83789,0 -1.28906,0.5478515 -0.4458,0.5424807 -0.4458,1.5629887 v 3.168945 h -0.99366 V 8.2758789 h 0.99366 v 0.9345703 q 0.31152,-0.5478515 0.81103,-0.8110351 0.49951,-0.2685547 1.21387,-0.2685547 0.10205,0 0.22558,0.016113 0.12354,0.010742 0.27393,0.037598 z" />
      <path
         id="path982"
         style=""
         d="m 178.03671,5.934082 v 0.8217774 h -0.94531 q -0.53174,0 -0.74121,0.2148437 -0.2041,0.2148438 -0.2041,0.7734375 v 0.5317383 h 1.62744 v 0.7680664 h -1.62744 v 5.2475587 h -0.99365 V 9.0439453 h -0.94532 V 8.2758789 h 0.94532 V 7.8569336 q 0,-1.0043945 0.46728,-1.4609375 0.46729,-0.4619141 1.48242,-0.4619141 z" />
    </g>
  </g>
</svg>
